<svg width="363" height="273" viewBox="0 0 363 273" fill="none" xmlns="http://www.w3.org/2000/svg">
<path d="M40 136.5C40 83.2045 83.2045 40 136.5 40H226.5C279.795 40 323 83.2045 323 136.5V136.5C323 189.795 279.795 233 226.5 233H136.5C83.2045 233 40 189.795 40 136.5V136.5Z" fill="#363636"/>
<g filter="url(#filter0_d_0_1)">
<ellipse cx="224.832" cy="168.31" rx="25.5679" ry="21.3065" transform="rotate(30.3709 224.832 168.31)" fill="#9DE2FF" shape-rendering="crispEdges"/>
<path d="M213.799 187.137C226.148 194.374 241.2 191.968 247.336 181.497C253.472 171.027 248.214 156.719 235.865 149.482C223.516 142.245 208.464 144.651 202.328 155.122C196.192 165.593 201.449 179.9 213.799 187.137Z" stroke="#BFFFFB" stroke-opacity="0.7" stroke-width="1.03102" shape-rendering="crispEdges"/>
</g>
<g filter="url(#filter1_d_0_1)">
<ellipse cx="144.832" cy="99.3097" rx="25.5679" ry="21.3065" transform="rotate(30.3709 144.832 99.3097)" fill="#9DE2FF" shape-rendering="crispEdges"/>
<path d="M133.799 118.137C146.148 125.374 161.2 122.968 167.336 112.497C173.472 102.027 168.214 87.7191 155.865 80.4822C143.516 73.2454 128.464 75.6514 122.328 86.122C116.192 96.5926 121.449 110.9 133.799 118.137Z" stroke="#BFFFFB" stroke-opacity="0.7" stroke-width="1.03102" shape-rendering="crispEdges"/>
</g>
<g filter="url(#filter2_d_0_1)">
<path d="M232.584 90.744C250.181 101.4 249.016 131 223.46 131C197.904 131 196.739 100.216 210.426 90.744C193.48 77.72 200.317 57 223.46 57C248.226 57 252.137 82.456 232.584 90.744Z" fill="#FF0000"/>
<path d="M232.584 90.744C250.181 101.4 249.016 131 223.46 131C197.904 131 196.739 100.216 210.426 90.744C193.48 77.72 200.317 57 223.46 57C248.226 57 252.137 82.456 232.584 90.744Z" fill="#FF0000"/>
</g>
<path d="M224.286 75H222.846V64.84H219.278V63.576H227.838V64.84H224.286V75ZM227.934 94.696C227.934 95.4107 227.838 96.0453 227.646 96.6C227.464 97.144 227.198 97.608 226.846 97.992C226.504 98.376 226.083 98.6693 225.582 98.872C225.091 99.064 224.542 99.16 223.934 99.16C223.368 99.16 222.846 99.064 222.366 98.872C221.886 98.6693 221.47 98.376 221.118 97.992C220.766 97.608 220.488 97.144 220.286 96.6C220.094 96.0453 219.998 95.4107 219.998 94.696C219.998 93.7467 220.158 92.9467 220.478 92.296C220.798 91.6347 221.256 91.1333 221.854 90.792C222.451 90.44 223.16 90.264 223.982 90.264C224.76 90.264 225.443 90.44 226.03 90.792C226.627 91.1333 227.091 91.6347 227.422 92.296C227.763 92.9467 227.934 93.7467 227.934 94.696ZM221.454 94.696C221.454 95.368 221.539 95.9547 221.71 96.456C221.891 96.9467 222.168 97.3253 222.542 97.592C222.915 97.8587 223.39 97.992 223.966 97.992C224.542 97.992 225.016 97.8587 225.39 97.592C225.763 97.3253 226.035 96.9467 226.206 96.456C226.387 95.9547 226.478 95.368 226.478 94.696C226.478 94.0133 226.387 93.432 226.206 92.952C226.024 92.472 225.747 92.104 225.374 91.848C225.011 91.5813 224.536 91.448 223.95 91.448C223.075 91.448 222.44 91.736 222.046 92.312C221.651 92.888 221.454 93.6827 221.454 94.696ZM227.726 114.424V123H226.318V115.624H221.886V123H220.478V114.424H227.726Z" fill="#00C5B9"/>
<g filter="url(#filter3_d_0_1)">
<path d="M178.087 166.668C178.619 169.936 178.5 173.362 178.02 176.638C176.041 190.156 157.409 199.165 144.434 199.52C141.649 199.597 138.847 199.593 136.061 199.62C121.168 199.762 99.9652 190.339 99.0319 175.461C98.8732 172.93 98.9536 170.351 99.2184 167.83C100.917 151.652 125.127 144 140.243 144C154.743 144 175.933 153.419 178.087 166.668Z" fill="#FF0000"/>
</g>
<path d="M116.381 169.417L112.167 164.138H113.689L117.842 169.402V164.138H119.15V169.402L123.303 164.138H124.824L120.61 169.402L124.961 175H123.394L119.15 169.493V175H117.842V169.493L113.582 175H112.015L116.381 169.417ZM129.441 166.694C130.141 166.694 130.739 166.846 131.236 167.15C131.743 167.454 132.129 167.886 132.393 168.443C132.666 168.991 132.803 169.635 132.803 170.375V171.182H127.22C127.241 172.105 127.474 172.809 127.92 173.296C128.376 173.773 129.01 174.011 129.822 174.011C130.339 174.011 130.795 173.966 131.191 173.874C131.596 173.773 132.012 173.631 132.438 173.448V174.62C132.022 174.802 131.612 174.934 131.206 175.015C130.8 175.106 130.319 175.152 129.761 175.152C128.99 175.152 128.305 174.995 127.707 174.681C127.119 174.366 126.657 173.9 126.323 173.281C125.998 172.652 125.836 171.886 125.836 170.984C125.836 170.091 125.983 169.326 126.277 168.687C126.581 168.048 127.002 167.556 127.54 167.211C128.087 166.866 128.721 166.694 129.441 166.694ZM129.426 167.789C128.787 167.789 128.28 167.997 127.905 168.413C127.54 168.819 127.322 169.386 127.251 170.117H131.404C131.404 169.65 131.333 169.245 131.191 168.9C131.049 168.555 130.831 168.286 130.537 168.093C130.253 167.891 129.882 167.789 129.426 167.789ZM141.086 175H139.732V167.957H137.328C137.227 169.245 137.1 170.345 136.948 171.258C136.796 172.16 136.603 172.896 136.37 173.464C136.137 174.031 135.858 174.447 135.533 174.711C135.209 174.975 134.828 175.106 134.392 175.106C134.26 175.106 134.129 175.096 133.997 175.076C133.875 175.066 133.774 175.041 133.693 175V173.996C133.753 174.016 133.819 174.031 133.89 174.042C133.961 174.052 134.032 174.057 134.103 174.057C134.326 174.057 134.529 173.966 134.712 173.783C134.894 173.6 135.057 173.322 135.199 172.946C135.351 172.571 135.488 172.099 135.609 171.531C135.731 170.953 135.838 170.274 135.929 169.493C136.02 168.712 136.101 167.83 136.172 166.846H141.086V175ZM146.823 166.694C147.523 166.694 148.121 166.846 148.618 167.15C149.125 167.454 149.511 167.886 149.774 168.443C150.048 168.991 150.185 169.635 150.185 170.375V171.182H144.602C144.622 172.105 144.856 172.809 145.302 173.296C145.758 173.773 146.392 174.011 147.203 174.011C147.721 174.011 148.177 173.966 148.572 173.874C148.978 173.773 149.394 173.631 149.82 173.448V174.62C149.404 174.802 148.993 174.934 148.588 175.015C148.182 175.106 147.7 175.152 147.142 175.152C146.372 175.152 145.687 174.995 145.089 174.681C144.501 174.366 144.039 173.9 143.704 173.281C143.38 172.652 143.218 171.886 143.218 170.984C143.218 170.091 143.365 169.326 143.659 168.687C143.963 168.048 144.384 167.556 144.921 167.211C145.469 166.866 146.103 166.694 146.823 166.694ZM146.808 167.789C146.169 167.789 145.662 167.997 145.287 168.413C144.921 168.819 144.703 169.386 144.632 170.117H148.785C148.785 169.65 148.714 169.245 148.572 168.9C148.431 168.555 148.212 168.286 147.918 168.093C147.634 167.891 147.264 167.789 146.808 167.789ZM154.406 166.694C155.025 166.694 155.562 166.78 156.018 166.952C156.475 167.115 156.83 167.358 157.083 167.683C157.337 167.997 157.464 168.382 157.464 168.839C157.464 169.336 157.327 169.731 157.053 170.025C156.779 170.309 156.404 170.517 155.927 170.649V170.71C156.252 170.801 156.551 170.928 156.825 171.09C157.099 171.253 157.317 171.466 157.479 171.729C157.651 171.993 157.737 172.333 157.737 172.749C157.737 173.195 157.611 173.6 157.357 173.966C157.114 174.331 156.733 174.62 156.216 174.833C155.709 175.046 155.055 175.152 154.254 175.152C153.868 175.152 153.498 175.132 153.143 175.091C152.798 175.051 152.484 174.99 152.2 174.909C151.926 174.828 151.683 174.731 151.47 174.62V173.418C151.815 173.58 152.22 173.727 152.687 173.859C153.163 173.991 153.681 174.057 154.239 174.057C154.644 174.057 155.009 174.011 155.334 173.92C155.669 173.829 155.932 173.687 156.125 173.494C156.318 173.291 156.414 173.017 156.414 172.672C156.414 172.358 156.328 172.105 156.155 171.912C155.983 171.709 155.724 171.557 155.379 171.455C155.045 171.354 154.614 171.303 154.086 171.303H152.991V170.208H153.873C154.573 170.208 155.131 170.117 155.547 169.934C155.973 169.741 156.186 169.417 156.186 168.961C156.186 168.575 156.023 168.286 155.699 168.093C155.385 167.901 154.928 167.804 154.33 167.804C153.884 167.804 153.488 167.85 153.143 167.941C152.809 168.022 152.438 168.149 152.033 168.322L151.561 167.257C151.997 167.064 152.454 166.922 152.93 166.831C153.407 166.739 153.899 166.694 154.406 166.694ZM166.808 170.908C166.808 171.587 166.717 172.191 166.534 172.718C166.362 173.235 166.108 173.676 165.773 174.042C165.449 174.407 165.048 174.686 164.572 174.878C164.105 175.061 163.583 175.152 163.005 175.152C162.467 175.152 161.97 175.061 161.514 174.878C161.057 174.686 160.662 174.407 160.327 174.042C159.993 173.676 159.729 173.235 159.536 172.718C159.354 172.191 159.262 171.587 159.262 170.908C159.262 170.005 159.414 169.245 159.719 168.626C160.023 167.997 160.459 167.52 161.027 167.196C161.595 166.861 162.269 166.694 163.05 166.694C163.791 166.694 164.44 166.861 164.997 167.196C165.565 167.52 166.007 167.997 166.321 168.626C166.646 169.245 166.808 170.005 166.808 170.908ZM160.647 170.908C160.647 171.547 160.728 172.105 160.89 172.581C161.062 173.048 161.326 173.408 161.681 173.661C162.036 173.915 162.487 174.042 163.035 174.042C163.583 174.042 164.034 173.915 164.389 173.661C164.744 173.408 165.003 173.048 165.165 172.581C165.337 172.105 165.423 171.547 165.423 170.908C165.423 170.259 165.337 169.706 165.165 169.25C164.992 168.793 164.729 168.443 164.374 168.2C164.029 167.946 163.578 167.82 163.02 167.82C162.188 167.82 161.585 168.093 161.21 168.641C160.834 169.189 160.647 169.944 160.647 170.908Z" fill="#00C5B9"/>
<path d="M136.5 50.2297H226.5V29.7703H136.5V50.2297ZM226.5 222.77H136.5V243.23H226.5V222.77ZM136.5 222.77C88.8542 222.77 50.2297 184.146 50.2297 136.5H29.7703C29.7703 195.445 77.5548 243.23 136.5 243.23V222.77ZM312.77 136.5C312.77 184.146 274.146 222.77 226.5 222.77V243.23C285.445 243.23 333.23 195.445 333.23 136.5H312.77ZM226.5 50.2297C274.146 50.2297 312.77 88.8542 312.77 136.5H333.23C333.23 77.5548 285.445 29.7703 226.5 29.7703V50.2297ZM136.5 29.7703C77.5548 29.7703 29.7703 77.5548 29.7703 136.5H50.2297C50.2297 88.8542 88.8542 50.2297 136.5 50.2297V29.7703Z" fill="white" fill-opacity="0.1"/>
<defs>
<filter id="filter0_d_0_1" x="168.309" y="113.877" width="113.046" height="108.865" filterUnits="userSpaceOnUse" color-interpolation-filters="sRGB">
<feFlood flood-opacity="0" result="BackgroundImageFix"/>
<feColorMatrix in="SourceAlpha" type="matrix" values="0 0 0 0 0 0 0 0 0 0 0 0 0 0 0 0 0 0 127 0" result="hardAlpha"/>
<feMorphology radius="10.3102" operator="dilate" in="SourceAlpha" result="effect1_dropShadow_0_1"/>
<feOffset/>
<feGaussianBlur stdDeviation="10.3102"/>
<feComposite in2="hardAlpha" operator="out"/>
<feColorMatrix type="matrix" values="0 0 0 0 1 0 0 0 0 0.545833 0 0 0 0 0.545833 0 0 0 0.25 0"/>
<feBlend mode="normal" in2="BackgroundImageFix" result="effect1_dropShadow_0_1"/>
<feBlend mode="normal" in="SourceGraphic" in2="effect1_dropShadow_0_1" result="shape"/>
</filter>
<filter id="filter1_d_0_1" x="88.3087" y="44.8772" width="113.046" height="108.865" filterUnits="userSpaceOnUse" color-interpolation-filters="sRGB">
<feFlood flood-opacity="0" result="BackgroundImageFix"/>
<feColorMatrix in="SourceAlpha" type="matrix" values="0 0 0 0 0 0 0 0 0 0 0 0 0 0 0 0 0 0 127 0" result="hardAlpha"/>
<feMorphology radius="10.3102" operator="dilate" in="SourceAlpha" result="effect1_dropShadow_0_1"/>
<feOffset/>
<feGaussianBlur stdDeviation="10.3102"/>
<feComposite in2="hardAlpha" operator="out"/>
<feColorMatrix type="matrix" values="0 0 0 0 1 0 0 0 0 0.545833 0 0 0 0 0.545833 0 0 0 0.25 0"/>
<feBlend mode="normal" in2="BackgroundImageFix" result="effect1_dropShadow_0_1"/>
<feBlend mode="normal" in="SourceGraphic" in2="effect1_dropShadow_0_1" result="shape"/>
</filter>
<filter id="filter2_d_0_1" x="193.496" y="46.9948" width="64.0104" height="94.0104" filterUnits="userSpaceOnUse" color-interpolation-filters="sRGB">
<feFlood flood-opacity="0" result="BackgroundImageFix"/>
<feColorMatrix in="SourceAlpha" type="matrix" values="0 0 0 0 0 0 0 0 0 0 0 0 0 0 0 0 0 0 127 0" result="hardAlpha"/>
<feOffset dx="2.5013"/>
<feGaussianBlur stdDeviation="5.0026"/>
<feComposite in2="hardAlpha" operator="out"/>
<feColorMatrix type="matrix" values="0 0 0 0 0 0 0 0 0 0.94 0 0 0 0 1 0 0 0 0.25 0"/>
<feBlend mode="normal" in2="BackgroundImageFix" result="effect1_dropShadow_0_1"/>
<feBlend mode="normal" in="SourceGraphic" in2="effect1_dropShadow_0_1" result="shape"/>
</filter>
<filter id="filter3_d_0_1" x="89.1257" y="130.9" width="105.686" height="81.8218" filterUnits="userSpaceOnUse" color-interpolation-filters="sRGB">
<feFlood flood-opacity="0" result="BackgroundImageFix"/>
<feColorMatrix in="SourceAlpha" type="matrix" values="0 0 0 0 0 0 0 0 0 0 0 0 0 0 0 0 0 0 127 0" result="hardAlpha"/>
<feOffset dx="3.27503"/>
<feGaussianBlur stdDeviation="6.55006"/>
<feComposite in2="hardAlpha" operator="out"/>
<feColorMatrix type="matrix" values="0 0 0 0 0 0 0 0 0 0.94 0 0 0 0 1 0 0 0 0.25 0"/>
<feBlend mode="normal" in2="BackgroundImageFix" result="effect1_dropShadow_0_1"/>
<feBlend mode="normal" in="SourceGraphic" in2="effect1_dropShadow_0_1" result="shape"/>
</filter>
</defs>
</svg>
